<svg viewBox="0 0 32 32" xmlns="http://www.w3.org/2000/svg">
  <defs>
    <linearGradient id="background" x1="0" y1="0" x2="1" y2="1">
      <stop offset="0%" stop-color="#c084fc" />
      <stop offset="100%" stop-color="#ec4899" />
    </linearGradient>
  </defs>
  <rect width="32" height="32" rx="6" fill="url(#background)" />
  <g transform="translate(4 4) scale(0.75)">
    <path
      d="M9 9l10.5-3m0 6.553v3.75a2.25 2.25 0 01-1.632 2.163l-1.32.377a1.803 1.803 0 11-.99-3.467l2.31-.66a2.25 2.25 0 001.632-2.163zm0 0V2.25L9 5.25v10.303m0 0v3.75a2.25 2.25 0 01-1.632 2.163l-1.32.377a1.803 1.803 0 01-.99-3.467l2.31-.66A2.25 2.25 0 009 15.553z"
      stroke="white"
      stroke-width="2"
      stroke-linecap="round"
      stroke-linejoin="round"
      fill="none"
    />
  </g>
</svg>